<?xml version="1.0" encoding="utf-8"?>
<!-- Generator: Adobe Illustrator 23.0.5, SVG Export Plug-In . SVG Version: 6.00 Build 0)  -->
<svg version="1.1" id="Capa_1" xmlns="http://www.w3.org/2000/svg" xmlns:xlink="http://www.w3.org/1999/xlink" x="0px" y="0px"
	 viewBox="0 0 477.9 477.9" style="enable-background:new 0 0 477.9 477.9;" xml:space="preserve">
<style type="text/css">
	.st0{fill:#F2BA2E;}
</style>
<g>
	<g>
		<path class="st0" d="M472.9,175.7L353.4,56.2c-6.7-6.7-17.5-6.7-24.1,0c-3.2,3.2-5,7.5-5,12.1v51.2H204.8
			c-9.4,0-17.1,7.6-17.1,17.1s7.6,17.1,17.1,17.1h136.5c9.4,0,17.1-7.6,17.1-17.1v-27.1l78.3,78.3L358.4,266v-27.1
			c0-9.4-7.6-17.1-17.1-17.1H153.6v-51.2c0-9.4-7.6-17.1-17.1-17.1c-4.5,0-8.9,1.8-12.1,5L5,278.1c-6.7,6.7-6.7,17.5,0,24.1
			l119.5,119.5c3.2,3.2,7.5,5,12.1,5c2.2,0,4.5-0.4,6.5-1.3c6.4-2.6,10.5-8.9,10.5-15.8v-51.2h119.5c9.4,0,17.1-7.6,17.1-17.1
			s-7.6-17.1-17.1-17.1H136.5c-9.4,0-17.1,7.6-17.1,17.1v27.1l-78.3-78.3l78.3-78.3v27.1c0,9.4,7.6,17.1,17.1,17.1h187.7v51.2
			c0,9.4,7.6,17.1,17.1,17.1c4.5,0,8.9-1.8,12.1-5l119.5-119.5C479.5,193.1,479.5,182.3,472.9,175.7z"/>
	</g>
</g>
</svg>
