<?xml version="1.0" encoding="utf-8"?>
<!-- Generator: Adobe Illustrator 23.0.5, SVG Export Plug-In . SVG Version: 6.00 Build 0)  -->
<svg version="1.1" id="Layer_1" xmlns="http://www.w3.org/2000/svg" xmlns:xlink="http://www.w3.org/1999/xlink" x="0px" y="0px"
	 viewBox="0 0 512 512" style="enable-background:new 0 0 512 512;" xml:space="preserve">
<style type="text/css">
	.st0{fill:#F3BB30;}
</style>
<path class="st0" d="M256,6.2C114.6,6.2,0,120.8,0,262.2c0,113.2,73.5,209.2,175.1,243.2c12.8,2,16.9-5.9,16.9-12.8
	c0-5.9,0-22,0-43.3c-70.9,15.4-86-34.3-86-34.3c-11.8-29.7-28.4-37.6-28.4-37.6c-23.3-15.9,1.8-15.4,1.8-15.4
	c25.6,1.8,39.2,26.4,39.2,26.4c22.3,38.9,59.9,27.4,74.5,21.2c2.3-16.6,9-27.9,16.1-34.3c-56.8-6.4-116.5-28.4-116.5-126
	c0-28.4,9.7-51.2,26.4-69.4c-2.6-6.4-11.5-33,2.6-67.6c0,0,21.5-6.9,70.4,26.1c20.2-5.6,42.2-8.4,64-8.4s43.8,2.8,64,8.4
	c48.9-33,70.4-26.1,70.4-26.1c14.1,34.6,5.1,61.2,2.6,67.6c16.6,18.2,26.4,41,26.4,69.4c0,97.8-59.9,119.3-117,125.7
	c9.2,7.9,17.7,23.6,17.7,47.4c0,34.3,0,62,0,70.1c0,6.9,4.1,15.1,17.2,12.8C438.8,471.1,512,375.4,512,262.2
	C512,120.8,397.4,6.2,256,6.2z"/>
</svg>
