<?xml version="1.0" encoding="utf-8"?>
<!-- Generator: Adobe Illustrator 23.0.5, SVG Export Plug-In . SVG Version: 6.00 Build 0)  -->
<svg version="1.1" id="Capa_1" xmlns="http://www.w3.org/2000/svg" xmlns:xlink="http://www.w3.org/1999/xlink" x="0px" y="0px"
	 viewBox="0 0 512 512" style="enable-background:new 0 0 512 512;" xml:space="preserve">
<style type="text/css">
	.st0{fill:#F2BA2E;}
</style>
<g id="XMLID_1254_">
	<g id="XMLID_855_">
		<path id="XMLID_889_" class="st0" d="M380.6,112c30.9,0,56-25.1,56-56s-25.1-56-56-56s-56,25.1-56,56S349.7,112,380.6,112z
			 M380.6,20c19.9,0,36,16.1,36,36s-16.1,36-36,36s-36-16.1-36-36S360.7,20,380.6,20z"/>
		<path id="XMLID_949_" class="st0" d="M482,286.1h-9.1c1.7-5.4,2.6-11.1,2.6-16.9c0-30.9-25.1-56-56-56c-19,0-35.9,9.6-46,24.1
			c-10.1-14.6-27-24.1-46-24.1c-9.3,0-18.3,2.3-26.4,6.6c-9.9-15.9-27.5-26.6-47.6-26.6c-21.3,0-39.8,11.9-49.3,29.5
			c-9.1-6.1-19.9-9.5-31.2-9.5c-15.8,0-30,6.6-40.2,17.1c-10.4-10.8-24.9-17.1-40.3-17.1c-30.9,0-56,25.1-56,56
			c0,5.8,0.9,11.5,2.6,16.9H30c-16.5,0-30,13.5-30,30v40c0,13,8.4,24.2,20,28.3V482c0,16.5,13.5,30,30,30h412c16.5,0,30-13.5,30-30
			v-97.6c11.6-4.1,20-15.2,20-28.3v-40C512,299.6,498.5,286.1,482,286.1L482,286.1z M419.5,233.3c19.9,0,36,16.1,36,36
			c0,5.9-1.5,11.7-4.2,16.9h-63.6c-2.8-5.2-4.2-10.9-4.2-16.9C383.5,249.4,399.6,233.3,419.5,233.3L419.5,233.3z M327.5,233.3
			c19.9,0,36,16.1,36,36c0,5.9-1.5,11.7-4.2,16.9h-63.7c8.6-9.9,13.9-22.8,13.9-36.9c0-3.6-0.4-7.1-1-10.6
			C314.2,235.2,320.7,233.3,327.5,233.3L327.5,233.3z M253.5,213.3c19.9,0,36,16.1,36,36s-16.1,36-36,36s-36-16.1-36-36
			S233.7,213.3,253.5,213.3L253.5,213.3z M173,233.3c9.3,0,18.2,3.6,24.8,9.9c-0.2,2-0.3,4-0.3,6.1c0,14.1,5.3,27,13.9,36.9h-70.2
			c-2.8-5.2-4.2-10.9-4.2-16.9C137,249.4,153.2,233.3,173,233.3L173,233.3z M56.5,269.3c0-19.9,16.1-36,36-36
			c11.4,0,22.1,5.4,28.8,14.4c-2.8,6.6-4.3,13.9-4.3,21.6c0,5.8,0.9,11.5,2.6,16.9H60.7C58,281,56.5,275.2,56.5,269.3z M492,356.1
			c0,5.5-4.5,10-10,10H301c-5.5,0-10,4.5-10,10s4.5,10,10,10h171V482c0,5.5-4.5,10-10,10H50c-5.5,0-10-4.5-10-10v-95.9h171
			c5.5,0,10-4.5,10-10s-4.5-10-10-10H30c-5.5,0-10-4.5-10-10v-40c0-5.5,4.5-10,10-10h452c5.5,0,10,4.5,10,10V356.1z"/>
		<path id="XMLID_1020_" class="st0" d="M296.1,178c5.5,0,10-4.5,10-10c0-16.7,6.4-32.6,18-44.6c3.8-4,3.7-10.3-0.2-14.1
			c-4-3.8-10.3-3.7-14.1,0.2c-15.2,15.8-23.6,36.5-23.6,58.5C286.1,173.5,290.6,178,296.1,178z"/>
		<path id="XMLID_1047_" class="st0" d="M80.4,152.7c30.9,0,56-25.1,56-56s-25.1-56-56-56s-56,25.1-56,56S49.5,152.7,80.4,152.7z
			 M80.4,60.7c19.9,0,36,16.1,36,36s-16.1,36-36,36s-36-16.1-36-36S60.5,60.7,80.4,60.7z"/>
		<path id="XMLID_1049_" class="st0" d="M153.6,142.4c12.2,8.9,20.4,21.9,23.1,36.8c0.9,4.8,5.1,8.3,9.8,8.3c0.6,0,1.2-0.1,1.8-0.2
			c5.4-1,9.1-6.2,8.1-11.6c-3.5-20-14.6-37.6-31-49.5c-4.5-3.2-10.7-2.2-14,2.2S149.1,139.1,153.6,142.4L153.6,142.4z"/>
		<path id="XMLID_1067_" class="st0" d="M256,366.1c-2.6,0-5.2,1.1-7.1,2.9s-2.9,4.4-2.9,7.1s1.1,5.2,2.9,7.1
			c1.9,1.9,4.4,2.9,7.1,2.9s5.2-1.1,7.1-2.9c1.9-1.9,2.9-4.4,2.9-7.1s-1.1-5.2-2.9-7.1C261.2,367.2,258.6,366.1,256,366.1z"/>
	</g>
</g>
</svg>
