<?xml version="1.0" encoding="utf-8"?>
<!-- Generator: Adobe Illustrator 23.0.5, SVG Export Plug-In . SVG Version: 6.00 Build 0)  -->
<svg version="1.1" id="Layer_1" xmlns="http://www.w3.org/2000/svg" xmlns:xlink="http://www.w3.org/1999/xlink" x="0px" y="0px"
	 viewBox="0 0 512 512" style="enable-background:new 0 0 512 512;" xml:space="preserve">
<style type="text/css">
	.st0{fill:#F3BB30;}
</style>
<path class="st0" d="M458.7,85.3H53.3C23.9,85.3,0,109.3,0,138.7v234.7c0,29.4,23.9,53.3,53.3,53.3h405.3
	c29.4,0,53.3-23.9,53.3-53.3V138.7C512,109.3,488.1,85.3,458.7,85.3z M469.3,200.7l-183.7,96c-9.2,4.7-19.4,7.3-29.7,7.3
	c-10.2,0-20.3-2.6-29.7-7.3l-183.7-96v-48.2L246,258.8c6.2,3.2,13.9,3.2,20.1,0l203.3-106.2V200.7z"/>
</svg>
